<svg width="26" height="12" viewBox="0 0 26 12" fill="none" xmlns="http://www.w3.org/2000/svg">
<path opacity="0.35" fill-rule="evenodd" clip-rule="evenodd" d="M3.52985 0.833344C2.48662 0.833344 2.0741 0.910336 1.6483 1.13043C1.28882 1.31624 1.0098 1.58591 0.817545 1.93335C0.589824 2.34488 0.510162 2.74358 0.510162 3.75186V8.24816C0.510162 9.25644 0.589824 9.65514 0.817545 10.0667C1.0098 10.4141 1.28882 10.6838 1.6483 10.8696C2.0741 11.0897 2.48662 11.1667 3.52985 11.1667H19.2185C20.2617 11.1667 20.6742 11.0897 21.1 10.8696C21.4595 10.6838 21.7385 10.4141 21.9308 10.0667C22.1585 9.65514 22.2382 9.25644 22.2382 8.24816V3.75186C22.2382 2.74358 22.1585 2.34488 21.9308 1.93335C21.7385 1.58591 21.4595 1.31624 21.1 1.13043C20.6742 0.910336 20.2617 0.833344 19.2185 0.833344H3.52985Z" stroke="black"/>
<path opacity="0.4" d="M23.7902 4V8C24.6228 7.66122 25.1643 6.87313 25.1643 6C25.1643 5.12687 24.6228 4.33878 23.7902 4Z" fill="black"/>
<path d="M3.83071 2.33334H18.9177C19.5326 2.33334 19.7556 2.39523 19.9804 2.51143C20.2053 2.62764 20.3817 2.79816 20.5019 3.01545C20.6222 3.23273 20.6862 3.44825 20.6862 4.0426V7.95742C20.6862 8.55177 20.6222 8.76729 20.5019 8.98457C20.3817 9.20186 20.2053 9.37238 19.9804 9.48859C19.7556 9.60479 19.5326 9.66668 18.9177 9.66668H3.83071C3.21576 9.66668 2.99276 9.60479 2.76794 9.48859C2.54313 9.37238 2.36669 9.20186 2.24646 8.98457C2.12622 8.76729 2.06219 8.55177 2.06219 7.95742V4.0426C2.06219 3.44825 2.12622 3.23273 2.24646 3.01545C2.36669 2.79816 2.54313 2.62764 2.76794 2.51143C2.99276 2.39523 3.21576 2.33334 3.83071 2.33334Z" fill="black"/>
</svg>
