<svg width="18" height="12" viewBox="0 0 18 12" fill="none" xmlns="http://www.w3.org/2000/svg">
<path d="M1.22668 7.33332H2.26135C2.83278 7.33332 3.29602 7.78104 3.29602 8.33332V10.3333C3.29602 10.8856 2.83278 11.3333 2.26135 11.3333H1.22668C0.655252 11.3333 0.192017 10.8856 0.192017 10.3333V8.33332C0.192017 7.78104 0.655252 7.33332 1.22668 7.33332ZM6.05512 5.33332H7.08978C7.66121 5.33332 8.12445 5.78104 8.12445 6.33332V10.3333C8.12445 10.8856 7.66121 11.3333 7.08978 11.3333H6.05512C5.48369 11.3333 5.02045 10.8856 5.02045 10.3333V6.33332C5.02045 5.78104 5.48369 5.33332 6.05512 5.33332ZM10.8836 2.99999H11.9183C12.4897 2.99999 12.9529 3.4477 12.9529 3.99999V10.3333C12.9529 10.8856 12.4897 11.3333 11.9183 11.3333H10.8836C10.3122 11.3333 9.84892 10.8856 9.84892 10.3333V3.99999C9.84892 3.4477 10.3122 2.99999 10.8836 2.99999ZM15.712 0.666656H16.7467C17.3181 0.666656 17.7814 1.11437 17.7814 1.66666V10.3333C17.7814 10.8856 17.3181 11.3333 16.7467 11.3333H15.712C15.1406 11.3333 14.6774 10.8856 14.6774 10.3333V1.66666C14.6774 1.11437 15.1406 0.666656 15.712 0.666656Z" fill="black"/>
</svg>
