<svg width="17" height="12" viewBox="0 0 17 12" fill="none" xmlns="http://www.w3.org/2000/svg">
<path d="M8.88753 2.61517C11.1894 2.61526 13.4032 3.46937 15.0715 5.00096C15.1971 5.11921 15.3979 5.11772 15.5216 4.99762L16.7225 3.82729C16.7851 3.76638 16.82 3.68387 16.8195 3.59802C16.819 3.51217 16.7831 3.43006 16.7197 3.36986C12.3411 -0.682369 5.43328 -0.682369 1.05466 3.36986C0.991229 3.43002 0.95525 3.5121 0.954658 3.59795C0.954081 3.6838 0.988961 3.76634 1.05156 3.82729L2.25273 4.99762C2.37637 5.1179 2.57735 5.11939 2.7029 5.00096C4.37136 3.46927 6.58545 2.61516 8.88753 2.61517ZM8.88753 6.42275C10.1523 6.42267 11.3718 6.87663 12.3093 7.6964C12.4361 7.81275 12.6358 7.81022 12.7594 7.69072L13.9589 6.52039C14.0221 6.459 14.0571 6.37572 14.0562 6.28919C14.0553 6.20265 14.0185 6.12008 13.9541 6.05995C11.0993 3.49554 6.6782 3.49554 3.82339 6.05995C3.7589 6.12008 3.72213 6.20269 3.72127 6.28926C3.72044 6.37582 3.75561 6.45909 3.8189 6.52039L5.01802 7.69072C5.14162 7.81022 5.34136 7.81275 5.46816 7.6964C6.40502 6.87717 7.62365 6.42325 8.88753 6.42275ZM11.1926 9.21582C11.2568 9.15503 11.2921 9.07136 11.2902 8.98458C11.2884 8.89781 11.2496 8.81561 11.1829 8.75739C9.85786 7.67512 7.91718 7.67512 6.59212 8.75739C6.52541 8.81556 6.48651 8.89774 6.4846 8.98451C6.4827 9.07129 6.51797 9.15498 6.58208 9.21582L8.65725 11.2378C8.71807 11.2972 8.80101 11.3307 8.88753 11.3307C8.97406 11.3307 9.05696 11.2972 9.11778 11.2378L11.1926 9.21582Z" fill="black"/>
</svg>
